<svg width="146" height="55" viewBox="0 0 146 55" fill="none" xmlns="http://www.w3.org/2000/svg">
<path d="M2.48047 43V42.32L16.1605 19.28H3.68047V14.2H25.6805V14.88L12.0805 37.88H25.2805V43H2.48047ZM41.348 43.6C39.2146 43.6 37.288 43.2267 35.568 42.48C33.8613 41.72 32.4546 40.64 31.348 39.24C30.2546 37.8267 29.5613 36.1467 29.268 34.2L34.948 33.36C35.348 35.0133 36.1746 36.2867 37.428 37.18C38.6813 38.0733 40.108 38.52 41.708 38.52C42.6013 38.52 43.468 38.38 44.308 38.1C45.148 37.82 45.8346 37.4067 46.368 36.86C46.9146 36.3133 47.188 35.64 47.188 34.84C47.188 34.5467 47.1413 34.2667 47.048 34C46.968 33.72 46.828 33.46 46.628 33.22C46.428 32.98 46.1413 32.7533 45.768 32.54C45.408 32.3267 44.948 32.1333 44.388 31.96L36.908 29.76C36.348 29.6 35.6946 29.3733 34.948 29.08C34.2146 28.7867 33.5013 28.3667 32.808 27.82C32.1146 27.2733 31.5346 26.5533 31.068 25.66C30.6146 24.7533 30.388 23.6133 30.388 22.24C30.388 20.3067 30.8746 18.7 31.848 17.42C32.8213 16.14 34.1213 15.1867 35.748 14.56C37.3746 13.9333 39.1746 13.6267 41.148 13.64C43.1346 13.6667 44.908 14.0067 46.468 14.66C48.028 15.3133 49.3346 16.2667 50.388 17.52C51.4413 18.76 52.2013 20.28 52.668 22.08L46.788 23.08C46.5746 22.1467 46.1813 21.36 45.608 20.72C45.0346 20.08 44.348 19.5933 43.548 19.26C42.7613 18.9267 41.9346 18.7467 41.068 18.72C40.2146 18.6933 39.408 18.8133 38.648 19.08C37.9013 19.3333 37.288 19.7067 36.808 20.2C36.3413 20.6933 36.108 21.28 36.108 21.96C36.108 22.5867 36.3013 23.1 36.688 23.5C37.0746 23.8867 37.5613 24.2 38.148 24.44C38.7346 24.68 39.3346 24.88 39.948 25.04L44.948 26.4C45.6946 26.6 46.5213 26.8667 47.428 27.2C48.3346 27.52 49.2013 27.9733 50.028 28.56C50.868 29.1333 51.5546 29.8933 52.088 30.84C52.6346 31.7867 52.908 32.9867 52.908 34.44C52.908 35.9867 52.5813 37.34 51.928 38.5C51.288 39.6467 50.4213 40.6 49.328 41.36C48.2346 42.1067 46.9946 42.6667 45.608 43.04C44.2346 43.4133 42.8146 43.6 41.348 43.6ZM70.2639 43C68.7706 43.28 67.3039 43.4 65.8639 43.36C64.4372 43.3333 63.1572 43.0867 62.0239 42.62C60.9039 42.14 60.0506 41.3733 59.4639 40.32C58.9306 39.3333 58.6506 38.3333 58.6239 37.32C58.5972 36.2933 58.5839 35.1333 58.5839 33.84V15.4H64.0239V33.52C64.0239 34.36 64.0306 35.12 64.0439 35.8C64.0706 36.4667 64.2106 37 64.4639 37.4C64.9439 38.16 65.7106 38.5733 66.7639 38.64C67.8172 38.7067 68.9839 38.6533 70.2639 38.48V43ZM54.9039 25.6V21.4H70.2639V25.6H54.9039ZM83.1173 43.64C81.424 43.64 80.044 43.3533 78.9773 42.78C77.9107 42.2067 77.0773 41.48 76.4773 40.6C75.8907 39.72 75.4707 38.8067 75.2173 37.86C74.964 36.9 74.8107 36.0267 74.7573 35.24C74.704 34.4533 74.6773 33.88 74.6773 33.52V21.4H80.1973V31.6C80.1973 32.0933 80.224 32.7267 80.2773 33.5C80.3307 34.26 80.4973 35.0267 80.7773 35.8C81.0573 36.5733 81.5107 37.22 82.1373 37.74C82.7773 38.26 83.6773 38.52 84.8373 38.52C85.304 38.52 85.804 38.4467 86.3373 38.3C86.8707 38.1533 87.3707 37.8733 87.8373 37.46C88.304 37.0333 88.684 36.4133 88.9773 35.6C89.284 34.7733 89.4373 33.6933 89.4373 32.36L92.5573 33.84C92.5573 35.5467 92.2107 37.1467 91.5173 38.64C90.824 40.1333 89.7773 41.34 88.3773 42.26C86.9907 43.18 85.2373 43.64 83.1173 43.64ZM90.1173 43V35.84H89.4373V21.4H94.9173V43H90.1173ZM109.267 43.6C107.28 43.6 105.54 43.1 104.047 42.1C102.554 41.1 101.387 39.74 100.547 38.02C99.7204 36.3 99.307 34.36 99.307 32.2C99.307 30 99.727 28.0467 100.567 26.34C101.42 24.62 102.614 23.2667 104.147 22.28C105.68 21.2933 107.48 20.8 109.547 20.8C111.6 20.8 113.327 21.3 114.727 22.3C116.127 23.3 117.187 24.66 117.907 26.38C118.627 28.1 118.987 30.04 118.987 32.2C118.987 34.36 118.62 36.3 117.887 38.02C117.167 39.74 116.087 41.1 114.647 42.1C113.207 43.1 111.414 43.6 109.267 43.6ZM110.147 38.76C111.36 38.76 112.327 38.4867 113.047 37.94C113.78 37.3933 114.307 36.6267 114.627 35.64C114.947 34.6533 115.107 33.5067 115.107 32.2C115.107 30.8933 114.947 29.7467 114.627 28.76C114.307 27.7733 113.794 27.0067 113.087 26.46C112.394 25.9133 111.48 25.64 110.347 25.64C109.134 25.64 108.134 25.94 107.347 26.54C106.574 27.1267 106 27.92 105.627 28.92C105.254 29.9067 105.067 31 105.067 32.2C105.067 33.4133 105.247 34.52 105.607 35.52C105.967 36.5067 106.52 37.2933 107.267 37.88C108.014 38.4667 108.974 38.76 110.147 38.76ZM115.107 43V28.2H114.427V14.2H119.907V43H115.107ZM128.267 52.6L132.427 41.16L132.507 44.52L123.107 21.4H128.747L135.067 37.76H133.787L140.067 21.4H145.507L133.307 52.6H128.267Z" fill="#003074"/>
</svg>
